<svg width="22" height="25" viewBox="0 0 22 25" fill="none" xmlns="http://www.w3.org/2000/svg">
<path fill-rule="evenodd" clip-rule="evenodd" d="M16.8966 7.46662C17.2768 7.87245 17.49 8.41935 17.49 8.98914C17.49 9.55892 17.2768 10.1058 16.8966 10.5117L14.2154 13.3231C14.2154 13.3315 14.2154 13.3315 14.2075 13.3398L11.7325 15.9343C11.4455 16.2347 11.0579 16.4046 10.653 16.4077C10.2481 16.4109 9.85817 16.2469 9.56695 15.951L12.2402 18.7625C12.6261 19.1624 13.1461 19.3866 13.6879 19.3866C14.2297 19.3866 14.7497 19.1624 15.1356 18.7625L21.2912 12.2886V8.55115C21.2912 6.74915 20.4424 5.21412 18.9669 4.31312L12.97 0.67575C11.4866 -0.22525 9.79699 -0.22525 8.32155 0.67575L8.14703 0.784203C8.57943 0.513156 9.0859 0.402813 9.5851 0.470898C10.0843 0.538982 10.5473 0.781542 10.8996 1.15962L16.8966 7.46662Z" fill="url(#paint0_linear_1096_42)"/>
<path fill-rule="evenodd" clip-rule="evenodd" d="M8.14666 0.77585L2.32422 4.31311C0.848776 5.21411 0 6.74914 0 8.5428V12.0884L6.15561 5.61455C6.54149 5.21461 7.06151 4.99041 7.60329 4.99041C8.14506 4.99041 8.66508 5.21461 9.05097 5.61455L11.7401 8.44269L14.2071 11.0372C14.494 11.3406 14.6556 11.7506 14.6571 12.1785C14.6586 12.6063 14.4998 13.0175 14.215 13.3231L16.8962 10.5116C17.277 10.1044 17.4904 9.55611 17.4904 8.98496C17.4904 8.4138 17.277 7.86551 16.8962 7.45826L10.8992 1.15961C10.5464 0.78278 10.0841 0.540446 9.58557 0.470941C9.08704 0.401437 8.5807 0.508731 8.14666 0.77585Z" fill="url(#paint1_linear_1096_42)"/>
<path fill-rule="evenodd" clip-rule="evenodd" d="M6.15561 5.6145L0 12.0883V15.8258C0 17.6278 0.848776 19.1629 2.32422 20.0639L8.32118 23.7012C9.02341 24.1438 9.82672 24.3776 10.6454 24.3776C11.4641 24.3776 12.2674 24.1438 12.9696 23.7012L13.1362 23.6011C12.7034 23.8676 12.1984 23.9745 11.7012 23.905C11.204 23.8355 10.7432 23.5935 10.3916 23.2174L4.3946 16.9104C4.01431 16.5045 3.80113 15.9576 3.80113 15.3878C3.80113 14.8181 4.01431 14.2712 4.3946 13.8653L7.06784 11.0455H7.08371L9.55071 8.44264C9.8429 8.141 10.236 7.97202 10.6454 7.97202C11.0548 7.97202 11.4479 8.141 11.7401 8.44264L9.05097 5.6145C8.66508 5.21456 8.14506 4.99036 7.60329 4.99036C7.06151 4.99036 6.54149 5.21456 6.15561 5.6145Z" fill="url(#paint2_linear_1096_42)"/>
<path fill-rule="evenodd" clip-rule="evenodd" d="M4.39504 13.8654C4.01475 14.2712 3.80157 14.8181 3.80157 15.3879C3.80157 15.9577 4.01475 16.5046 4.39504 16.9105L10.392 23.2174C10.7436 23.5936 11.2045 23.8356 11.7016 23.9051C12.1988 23.9746 12.7038 23.8677 13.1366 23.6012L18.967 20.0639C20.4425 19.1629 21.2912 17.6279 21.2912 15.8259V12.2887L15.1356 18.7625C14.7497 19.1625 14.2297 19.3867 13.6879 19.3867C13.1462 19.3867 12.6261 19.1625 12.2403 18.7625L9.56702 15.9511L9.55115 15.9344L7.08415 13.3398C6.79621 13.0376 6.63309 12.6282 6.63013 12.2003C6.62716 11.7725 6.78457 11.3606 7.06829 11.054L4.39504 13.8654Z" fill="url(#paint3_linear_1096_42)"/>
<defs>
<linearGradient id="paint0_linear_1096_42" x1="19.3822" y1="1.4555" x2="7.19345" y2="13.0452" gradientUnits="userSpaceOnUse">
<stop stop-color="#EFC96D"/>
<stop offset="0.55" stop-color="#AE6F28"/>
<stop offset="1" stop-color="#5A2F0E"/>
</linearGradient>
<linearGradient id="paint1_linear_1096_42" x1="2.60615" y1="3.27806" x2="13.6018" y2="13.7326" gradientUnits="userSpaceOnUse">
<stop stop-color="#EFC96D"/>
<stop offset="0.55" stop-color="#AE6F28"/>
<stop offset="1" stop-color="#5A2F0E"/>
</linearGradient>
<linearGradient id="paint2_linear_1096_42" x1="2.46608" y1="21.9538" x2="14.2335" y2="10.7654" gradientUnits="userSpaceOnUse">
<stop stop-color="#EFC96D"/>
<stop offset="0.55" stop-color="#AE6F28"/>
<stop offset="1" stop-color="#5A2F0E"/>
</linearGradient>
<linearGradient id="paint3_linear_1096_42" x1="18.8245" y1="20.5355" x2="7.84882" y2="10.0994" gradientUnits="userSpaceOnUse">
<stop stop-color="#EFC96D"/>
<stop offset="0.55" stop-color="#AE6F28"/>
<stop offset="1" stop-color="#5A2F0E"/>
</linearGradient>
</defs>
</svg>
