<svg width="10" height="10" viewBox="0 0 10 10" fill="none" xmlns="http://www.w3.org/2000/svg">
<g clip-path="url(#clip0_4_5469)">
<path d="M5.28803 1.3083L5.92334 2.52688C5.97059 2.61659 6.03843 2.69382 6.12128 2.75225C6.20414 2.81068 6.29966 2.84866 6.40003 2.86305L7.74189 3.04683C8.45947 3.14579 8.73768 4.03047 8.20698 4.52242L7.2881 5.37035C7.20988 5.4424 7.15115 5.53306 7.11739 5.63391C7.08363 5.73475 7.07592 5.8425 7.09499 5.94712L7.3192 7.19059C7.44388 7.88329 6.72319 8.42332 6.09071 8.10665L4.80823 7.4705C4.71995 7.42725 4.62295 7.40477 4.52465 7.40477C4.42634 7.40477 4.32934 7.42725 4.24106 7.4705L2.95858 8.10665C2.32582 8.42049 1.60541 7.88329 1.7301 7.19059L1.95431 5.94684C1.99389 5.73479 1.92038 5.51708 1.76148 5.37006L0.84231 4.52242C0.311617 4.03329 0.589828 3.14551 1.30741 3.04655L2.64927 2.86277C2.74992 2.84927 2.84583 2.81166 2.92883 2.75313C3.01182 2.6946 3.07945 2.61688 3.12596 2.5266L3.76155 1.3083C4.08499 0.694761 4.96713 0.694761 5.28775 1.3083" fill="#FCD53F"/>
</g>
<defs>
<clipPath id="clip0_4_5469">
<rect width="9.04751" height="9.04751" fill="white"/>
</clipPath>
</defs>
</svg>
